<svg width="345" height="345" viewBox="0 0 345 345" fill="none" xmlns="http://www.w3.org/2000/svg">
<path d="M164.015 8.48528C168.701 3.79899 176.299 3.79899 180.985 8.48528L214.515 42.0147C219.201 46.701 219.201 54.299 214.515 58.9853L180.985 92.5147C176.299 97.201 168.701 97.201 164.015 92.5147L130.485 58.9853C125.799 54.299 125.799 46.701 130.485 42.0147L164.015 8.48528Z" fill="#097CBC"/>
<path d="M136.347 149.474C136.221 142.847 141.491 137.374 148.117 137.248L195.526 136.347C202.153 136.221 207.626 141.491 207.752 148.117L208.653 195.526C208.779 202.153 203.509 207.626 196.883 207.752L149.474 208.653C142.847 208.779 137.374 203.509 137.248 196.883L136.347 149.474Z" fill="#C4C4C4"/>
<path d="M136.347 149.474C136.221 142.847 141.491 137.374 148.117 137.248L195.526 136.347C202.153 136.221 207.626 141.491 207.752 148.117L208.653 195.526C208.779 202.153 203.509 207.626 196.883 207.752L149.474 208.653C142.847 208.779 137.374 203.509 137.248 196.883L136.347 149.474Z" fill="#008D74"/>
<path d="M286.015 130.485C290.701 125.799 298.299 125.799 302.985 130.485L336.515 164.015C341.201 168.701 341.201 176.299 336.515 180.985L302.985 214.515C298.299 219.201 290.701 219.201 286.015 214.515L252.485 180.985C247.799 176.299 247.799 168.701 252.485 164.015L286.015 130.485Z" fill="#097CBC"/>
<path d="M42.0147 130.485C46.701 125.799 54.299 125.799 58.9853 130.485L92.5147 164.015C97.201 168.701 97.201 176.299 92.5147 180.985L58.9853 214.515C54.299 219.201 46.701 219.201 42.0147 214.515L8.48528 180.985C3.79899 176.299 3.79899 168.701 8.48528 164.015L42.0147 130.485Z" fill="#097CBC"/>
<path d="M163.015 252.485C167.701 247.799 175.299 247.799 179.985 252.485L213.515 286.015C218.201 290.701 218.201 298.299 213.515 302.985L179.985 336.515C175.299 341.201 167.701 341.201 163.015 336.515L129.485 302.985C124.799 298.299 124.799 290.701 129.485 286.015L163.015 252.485Z" fill="#097CBC"/>
<circle cx="106.5" cy="235.5" r="35.5" fill="#2FE9D2"/>
<circle cx="235.5" cy="108.5" r="35.5" fill="#2FE9D2"/>
<circle cx="235.5" cy="235.5" r="35.5" fill="#2FE9D2"/>
<circle cx="106.5" cy="108.5" r="35.5" fill="#2FE9D2"/>
</svg>
